<?xml version="1.0" encoding="UTF-8"?>
<svg id="Layer_2" data-name="Layer 2" xmlns="http://www.w3.org/2000/svg" viewBox="0 0 300.98 333.79">
  <defs>
    <style>
      .cls-1 {
        stroke-width: 0px;
      }
    </style>
  </defs>
  <g id="Layer_1-2" data-name="Layer 1">
    <path class="cls-1" d="m246.34,193.56c-3.55-3.51-3.57-9.24-.06-12.78l33.44-33.74-43.76-43.38-76.74,77.42,44.09,43.71c4.69,4.65,4.73,12.23.07,16.92l-21.04,21.22-8.5-8.42,15.45-15.58c3.09-3.11,3.06-8.14-.05-11.23l-38.46-38.12-11.33-11.23h-.01s-64.65-64.06-64.65-64.06c-2.46-2.43-2.47-6.4-.04-8.85l31.97-32.26c2.43-2.46,6.4-2.47,8.85-.04l64.65,64.08,44.38-44.78L141.62,10.15c-13.74-13.62-35.93-13.53-49.55.22L10.15,93.01c-13.62,13.74-13.53,35.93.22,49.55l188.55,186.89c5.86,5.81,15.33,5.77,21.14-.09l80.92-81.63-54.64-54.16Z"/>
  </g>
</svg>